<svg width="113" height="47" viewBox="0 0 113 47" fill="none" xmlns="http://www.w3.org/2000/svg">
<path d="M0.544708 35.3636H22.5015V28.6611H8.52425V0.0705414H0.544708V35.3636ZM38.6146 9.18182C30.4264 9.18182 25.0024 14.4705 25.0024 22.744C25.0024 31.0175 30.7393 35.9396 38.1973 35.9396C45.0295 35.9396 51.653 31.6458 51.653 22.2727C51.653 14.5753 46.4376 9.18182 38.6146 9.18182ZM38.4059 14.8371C42.0046 14.8371 43.4649 18.712 43.4649 22.5345C43.4649 27.1425 41.483 30.232 38.4059 30.232C35.0159 30.232 33.1906 26.9331 33.1906 22.5345C33.1906 18.7644 34.5987 14.8371 38.4059 14.8371ZM74.1875 9.75781L73.9268 12.7949H73.8225C72.5186 10.7004 70.3281 9.18182 66.8338 9.18182C60.5754 9.18182 55.2557 14.4182 55.2557 22.6393C55.2557 30.0225 59.7409 35.1542 66.0515 35.1542C68.9722 35.1542 71.4234 33.9498 72.9358 31.8029H73.0401V33.4785C73.0401 38.1913 70.1717 40.2335 66.4166 40.2335C63.4438 40.2335 60.6275 39.2385 59.0108 38.296L57.4461 44.3178C59.7409 45.6269 63.2874 46.3076 66.6252 46.3076C70.3803 46.3076 74.1875 45.5745 77.0038 43.1658C79.8723 40.6 80.8632 36.568 80.8632 31.6458V17.3505C80.8632 13.528 80.9675 11.3811 81.0718 9.75781H74.1875ZM72.9358 23.9484C72.9358 24.6291 72.8837 25.4669 72.6751 26.0429C72.1535 27.928 70.5368 29.2895 68.5028 29.2895C65.1649 29.2895 63.2874 26.3047 63.2874 22.4822C63.2874 17.8218 65.6343 15.2036 68.5028 15.2036C70.6932 15.2036 72.2057 16.6175 72.7794 18.712C72.8837 19.1309 72.9358 19.6545 72.9358 20.1782V23.9484ZM99.3758 9.18182C91.1877 9.18182 85.7637 14.4705 85.7637 22.744C85.7637 31.0175 91.5006 35.9396 98.9586 35.9396C105.791 35.9396 112.414 31.6458 112.414 22.2727C112.414 14.5753 107.199 9.18182 99.3758 9.18182ZM99.1672 14.8371C102.766 14.8371 104.226 18.712 104.226 22.5345C104.226 27.1425 102.244 30.232 99.1672 30.232C95.7772 30.232 93.9518 26.9331 93.9518 22.5345C93.9518 18.7644 95.36 14.8371 99.1672 14.8371Z" fill="#0500FF"/>
</svg>
