<svg width="24" height="24" viewBox="0 0 24 24" fill="none" xmlns="http://www.w3.org/2000/svg">
<path fill-rule="evenodd" clip-rule="evenodd" d="M18 4H6C4.89543 4 4 4.89543 4 6V18C4 19.1046 4.89543 20 6 20H18C19.1046 20 20 19.1046 20 18V6C20 4.89543 19.1046 4 18 4ZM6 2C3.79086 2 2 3.79086 2 6V18C2 20.2091 3.79086 22 6 22H18C20.2091 22 22 20.2091 22 18V6C22 3.79086 20.2091 2 18 2H6ZM13.4142 12L18.364 16.9498L16.9498 18.364L12 13.4142L7.0502 18.364L5.63599 16.9498L10.5858 12L5.63608 7.05026L7.05029 5.63605L12 10.5858L16.9497 5.63606L18.3639 7.05027L13.4142 12Z" fill="black" fill-opacity="0.87"/>
</svg>
