<svg width="24" height="24" viewBox="0 0 24 24" fill="none" xmlns="http://www.w3.org/2000/svg">
<path d="M19.0711 11.9999L16.2427 9.17149L14.8284 10.5857L17.6569 13.4141C18.8236 14.5809 18.8236 16.49 17.6569 17.6568C16.4901 18.8235 14.581 18.8235 13.4142 17.6568L10.5858 14.8283L9.17158 16.2426L12 19.071C13.9516 21.0226 17.1195 21.0226 19.0711 19.071C21.0227 17.1194 21.0227 13.9515 19.0711 11.9999ZM9.17158 13.4141L6.34316 10.5857C5.17643 9.41897 5.17643 7.50978 6.34316 6.34306C7.50988 5.17633 9.41907 5.17633 10.5858 6.34306L13.4142 9.17149L14.8284 7.75727L12 4.92884C10.0484 2.97723 6.88056 2.97723 4.92894 4.92884C2.97733 6.88046 2.97733 10.0483 4.92894 11.9999L7.75737 14.8283L9.17158 13.4141ZM9.87869 8.46438L15.5355 14.1212L14.1213 15.5354L8.46448 9.87859L9.87869 8.46438Z" fill="#6187DB"/>
</svg>
