<svg width="212" height="33" viewBox="0 0 212 33" fill="none" xmlns="http://www.w3.org/2000/svg">
<path d="M42.2617 22V9.83105H44.6523L49.6328 17.9575V9.83105H51.9155V22H49.4502L44.5444 14.0645V22H42.2617ZM54.522 22V9.83105H63.5449V11.8896H56.979V14.5874H63.0884V16.6377H56.979V19.9497H63.7773V22H54.522ZM64.624 22L68.7827 15.6499L65.0142 9.83105H67.8862L70.3267 13.7407L72.7173 9.83105H75.5645L71.7793 15.7412L75.938 22H72.9746L70.2769 17.7915L67.5708 22H64.624ZM79.939 22V11.8896H76.3281V9.83105H85.9985V11.8896H82.396V22H79.939ZM95.063 22V11.8896H91.4521V9.83105H101.123V11.8896H97.52V22H95.063ZM102.716 22V9.83105H111.739V11.8896H105.173V14.5874H111.283V16.6377H105.173V19.9497H111.972V22H102.716ZM121.841 17.5259L124.224 18.2812C123.858 19.6094 123.25 20.5972 122.397 21.2446C121.551 21.8866 120.474 22.2075 119.168 22.2075C117.553 22.2075 116.224 21.6569 115.184 20.5557C114.144 19.4489 113.624 17.9382 113.624 16.0234C113.624 13.998 114.146 12.4264 115.192 11.3086C116.238 10.1852 117.613 9.62354 119.318 9.62354C120.806 9.62354 122.016 10.0635 122.945 10.9434C123.499 11.4635 123.914 12.2106 124.19 13.1846L121.758 13.7656C121.614 13.1348 121.313 12.6367 120.854 12.2715C120.4 11.9062 119.846 11.7236 119.193 11.7236C118.291 11.7236 117.558 12.0474 116.994 12.6948C116.435 13.3423 116.155 14.391 116.155 15.8408C116.155 17.3792 116.432 18.4749 116.985 19.1279C117.539 19.7809 118.258 20.1074 119.144 20.1074C119.797 20.1074 120.358 19.8999 120.829 19.4849C121.299 19.0698 121.637 18.4168 121.841 17.5259ZM126.349 22V9.83105H128.806V14.6206H133.62V9.83105H136.077V22H133.62V16.6792H128.806V22H126.349ZM138.65 22V9.83105H141.041L146.021 17.9575V9.83105H148.304V22H145.839L140.933 14.0645V22H138.65ZM150.413 15.9902C150.413 14.7507 150.598 13.7103 150.969 12.8691C151.245 12.2493 151.622 11.6932 152.098 11.2007C152.579 10.7082 153.105 10.3429 153.675 10.105C154.433 9.78402 155.307 9.62354 156.298 9.62354C158.091 9.62354 159.524 10.1797 160.598 11.292C161.677 12.4043 162.216 13.951 162.216 15.9321C162.216 17.8966 161.682 19.4351 160.614 20.5474C159.546 21.6541 158.118 22.2075 156.331 22.2075C154.521 22.2075 153.083 21.6569 152.015 20.5557C150.947 19.4489 150.413 17.9271 150.413 15.9902ZM152.944 15.9072C152.944 17.2852 153.263 18.3311 153.899 19.0449C154.535 19.7533 155.343 20.1074 156.323 20.1074C157.302 20.1074 158.105 19.756 158.73 19.0532C159.361 18.3449 159.676 17.2852 159.676 15.874C159.676 14.4795 159.369 13.4391 158.755 12.7529C158.146 12.0667 157.335 11.7236 156.323 11.7236C155.31 11.7236 154.494 12.0723 153.874 12.7695C153.254 13.4613 152.944 14.5072 152.944 15.9072ZM164.208 22V9.93066H166.666V19.9497H172.775V22H164.208ZM174.037 15.9902C174.037 14.7507 174.222 13.7103 174.593 12.8691C174.869 12.2493 175.246 11.6932 175.722 11.2007C176.203 10.7082 176.729 10.3429 177.299 10.105C178.057 9.78402 178.931 9.62354 179.922 9.62354C181.715 9.62354 183.148 10.1797 184.222 11.292C185.301 12.4043 185.84 13.951 185.84 15.9321C185.84 17.8966 185.306 19.4351 184.238 20.5474C183.17 21.6541 181.743 22.2075 179.955 22.2075C178.146 22.2075 176.707 21.6569 175.639 20.5557C174.571 19.4489 174.037 17.9271 174.037 15.9902ZM176.568 15.9072C176.568 17.2852 176.887 18.3311 177.523 19.0449C178.159 19.7533 178.967 20.1074 179.947 20.1074C180.926 20.1074 181.729 19.756 182.354 19.0532C182.985 18.3449 183.3 17.2852 183.3 15.874C183.3 14.4795 182.993 13.4391 182.379 12.7529C181.77 12.0667 180.959 11.7236 179.947 11.7236C178.934 11.7236 178.118 12.0723 177.498 12.7695C176.878 13.4613 176.568 14.5072 176.568 15.9072ZM193.427 17.5259V15.4756H198.723V20.3232C198.208 20.8213 197.461 21.2612 196.482 21.6431C195.508 22.0194 194.52 22.2075 193.519 22.2075C192.246 22.2075 191.136 21.9419 190.19 21.4106C189.244 20.8739 188.533 20.1102 188.057 19.1196C187.581 18.1235 187.343 17.0417 187.343 15.874C187.343 14.6068 187.608 13.4806 188.14 12.4956C188.671 11.5106 189.448 10.7552 190.472 10.2295C191.252 9.82552 192.224 9.62354 193.386 9.62354C194.896 9.62354 196.075 9.94173 196.922 10.5781C197.774 11.209 198.322 12.0833 198.565 13.2012L196.125 13.6577C195.953 13.0601 195.63 12.5897 195.154 12.2466C194.683 11.8979 194.094 11.7236 193.386 11.7236C192.312 11.7236 191.457 12.064 190.821 12.7446C190.19 13.4253 189.875 14.4352 189.875 15.7744C189.875 17.2188 190.195 18.3034 190.837 19.0283C191.479 19.7477 192.32 20.1074 193.361 20.1074C193.875 20.1074 194.39 20.0078 194.905 19.8086C195.425 19.6038 195.87 19.3576 196.241 19.0698V17.5259H193.427ZM204.193 22V16.8784L199.736 9.83105H202.616L205.48 14.6455L208.286 9.83105H211.116L206.642 16.895V22H204.193Z" fill="white"/>
<path fill-rule="evenodd" clip-rule="evenodd" d="M13.2147 4.54308L6.84921 18.0806L6.10352e-05 9.80093V8.0829L11.1961 1.61888L13.2147 4.54308ZM11.5856 1.39402L13.4354 4.07372L15.0625 0.613408L14.0001 0L11.5856 1.39402ZM15.4521 0.838338L13.7301 4.50055L17.9905 10.6721L21.4444 4.29797L15.4521 0.838338ZM21.8327 4.52219L18.2762 11.0859L25.5015 21.5523L27.9802 16.6417L28.0001 16.6517V8.0829L21.8327 4.52219ZM28.0001 17.5971L25.7915 21.9725L27.5445 24.5118L28.0001 24.2487V17.5971ZM27.155 24.7366L25.5615 22.4283L23.2617 26.9844L27.155 24.7366ZM22.5531 27.3935L25.2714 22.0081L18.0366 11.528L11.4636 23.6587L17.1389 30.5194L22.5531 27.3935ZM16.7452 30.7467L11.2333 24.0837L8.48843 29.1495L14.0001 32.3316L16.7452 30.7467ZM8.10007 28.9253L10.9253 23.7113L6.9542 18.9108L3.49535 26.2667L8.10007 28.9253ZM3.10576 26.0418L6.10352e-05 24.2487V10.5042L6.63837 18.529L3.10576 26.0418ZM11.1555 23.2863L7.16505 18.4624L13.5094 4.96991L17.751 11.1142L11.1555 23.2863Z" fill="white"/>
</svg>
