<svg width="16" height="16" viewBox="0 0 16 16" fill="none" xmlns="http://www.w3.org/2000/svg">
<path d="M12.76 8.62652C12.7867 8.42652 12.8 8.21985 12.8 7.99985C12.8 7.78652 12.7867 7.57319 12.7533 7.37319L14.1067 6.31985C14.2267 6.22652 14.26 6.04652 14.1867 5.91319L12.9067 3.69985C12.8267 3.55319 12.66 3.50652 12.5133 3.55319L10.92 4.19319C10.5867 3.93985 10.2333 3.72652 9.83999 3.56652L9.59999 1.87319C9.57333 1.71319 9.43999 1.59985 9.27999 1.59985H6.71999C6.55999 1.59985 6.43332 1.71319 6.40666 1.87319L6.16666 3.56652C5.77333 3.72652 5.41333 3.94652 5.08666 4.19319L3.49332 3.55319C3.34666 3.49985 3.17999 3.55319 3.09999 3.69985L1.82666 5.91319C1.74666 6.05319 1.77333 6.22652 1.90666 6.31985L3.25999 7.37319C3.22666 7.57319 3.19999 7.79319 3.19999 7.99985C3.19999 8.20652 3.21333 8.42652 3.24666 8.62652L1.89333 9.67985C1.77333 9.77319 1.73999 9.95319 1.81333 10.0865L3.09333 12.2999C3.17333 12.4465 3.33999 12.4932 3.48666 12.4465L5.07999 11.8065C5.41333 12.0599 5.76666 12.2732 6.15999 12.4332L6.39999 14.1265C6.43333 14.2865 6.55999 14.3999 6.71999 14.3999H9.27999C9.43999 14.3999 9.57333 14.2865 9.59333 14.1265L9.83333 12.4332C10.2267 12.2732 10.5867 12.0599 10.9133 11.8065L12.5067 12.4465C12.6533 12.4999 12.82 12.4465 12.9 12.2999L14.18 10.0865C14.26 9.93985 14.2267 9.77319 14.1 9.67985L12.76 8.62652ZM7.99999 10.3999C6.67999 10.3999 5.59999 9.31985 5.59999 7.99985C5.59999 6.67985 6.67999 5.59985 7.99999 5.59985C9.31999 5.59985 10.4 6.67985 10.4 7.99985C10.4 9.31985 9.31999 10.3999 7.99999 10.3999Z" fill="black" fill-opacity="0.38"/>
</svg>
