<svg width="20" height="20" viewBox="0 0 20 20" fill="none" xmlns="http://www.w3.org/2000/svg">
<path d="M18.3333 15.8334H13.3333V12.5001H11.1C10.15 14.5167 8.1 15.8334 5.83333 15.8334C2.61667 15.8334 0 13.2167 0 10.0001C0 6.78342 2.61667 4.16675 5.83333 4.16675C8.1 4.16675 10.1417 5.48341 11.1 7.50008H20V12.5001H18.3333V15.8334ZM15 14.1667H16.6667V10.8334H18.3333V9.16675H9.95L9.75833 8.60842C9.175 6.95008 7.59167 5.83341 5.83333 5.83341C3.53333 5.83341 1.66667 7.70008 1.66667 10.0001C1.66667 12.3001 3.53333 14.1667 5.83333 14.1667C7.59167 14.1667 9.175 13.0501 9.75833 11.3917L9.95 10.8334H15V14.1667ZM5.83333 12.5001C4.45833 12.5001 3.33333 11.3751 3.33333 10.0001C3.33333 8.62508 4.45833 7.50008 5.83333 7.50008C7.20833 7.50008 8.33333 8.62508 8.33333 10.0001C8.33333 11.3751 7.20833 12.5001 5.83333 12.5001ZM5.83333 9.16675C5.375 9.16675 5 9.54175 5 10.0001C5 10.4584 5.375 10.8334 5.83333 10.8334C6.29167 10.8334 6.66667 10.4584 6.66667 10.0001C6.66667 9.54175 6.29167 9.16675 5.83333 9.16675Z" fill="black" fill-opacity="0.38"/>
</svg>
