<svg width="16" height="16" viewBox="0 0 16 16" fill="none" xmlns="http://www.w3.org/2000/svg">
<path d="M7.99999 5.33341C8.73332 5.33341 9.33332 4.73341 9.33332 4.00008C9.33332 3.26675 8.73332 2.66675 7.99999 2.66675C7.26666 2.66675 6.66666 3.26675 6.66666 4.00008C6.66666 4.73341 7.26666 5.33341 7.99999 5.33341ZM7.99999 6.66675C7.26666 6.66675 6.66666 7.26675 6.66666 8.00008C6.66666 8.73341 7.26666 9.33341 7.99999 9.33341C8.73332 9.33341 9.33332 8.73341 9.33332 8.00008C9.33332 7.26675 8.73332 6.66675 7.99999 6.66675ZM7.99999 10.6667C7.26666 10.6667 6.66666 11.2667 6.66666 12.0001C6.66666 12.7334 7.26666 13.3334 7.99999 13.3334C8.73332 13.3334 9.33332 12.7334 9.33332 12.0001C9.33332 11.2667 8.73332 10.6667 7.99999 10.6667Z" fill="black" fill-opacity="0.38"/>
</svg>
